<svg id="Capa_1" data-name="Capa 1" xmlns="http://www.w3.org/2000/svg" viewBox="0 0 536.52 133.96"><defs><style>.cls-1{fill:#fbfafa;}.cls-2{fill:#8bc33e;}</style></defs><path class="cls-1" d="M268,45.64c3.56,1.25,6.25,2,8.83,3.11,9.82,4.11,14.42,11.12,14.41,21.73,0,11.7-5,19.78-14.78,23.76a37.54,37.54,0,0,1-14.1,2.82c-21.15.07-42.29,0-63.43.18-3,0-3.5-1-3.5-3.7,0-7.24-.11-7.24,7-7.25,1,0,2-.07,3,0,4.64.29,6.54-1.72,6.47-6.49-.2-13-.07-26-.07-38.95,0-7.82-.13-15.64,0-23.46.11-4.46-1.68-6.55-6.15-6.34a33.55,33.55,0,0,0-4.49,0c-5,.92-6-1.22-5.87-5.89.1-4,.89-5.28,5.16-5.21,16.48.29,33,.12,49.45.11a81.6,81.6,0,0,1,17.84,1.74c13.69,3,19.74,9.62,19.92,21.64S282.27,41.88,268,45.64ZM232.49,69c0,4.82,0,9.65,0,14.48,0,1.67.13,2.86,2.33,2.79,7.49-.24,15,.21,22.44-.64,9.31-1.08,13.42-6.82,13.3-16.75-.12-9.34-4.65-14.56-13.75-16-7.13-1.11-14.3-.42-21.44-.72-2.69-.12-2.93,1.23-2.89,3.34C232.55,60.05,232.49,64.54,232.49,69Zm0-42.52c0,4,.09,8,0,12-.07,2.1.52,3,2.77,2.88,6.14-.21,12.3,0,18.42-.4,5.73-.41,10.73-2.57,12.75-8.63,3.53-10.61-1.49-18.94-12.48-20.79a35.94,35.94,0,0,0-5.95-.42c-5,0-11.43-1.75-14.46.71s-.67,9.3-1,14.2C232.48,26.19,232.49,26.35,232.49,26.52Z"/><path class="cls-1" d="M32.19,40.76c13.13-20.29,37.6-17.26,43-1.28,2.35-2.29,4.61-4.72,7.11-6.88C89,26.84,96.8,25.42,105.2,27.24s14.18,9.06,14.39,18.11c.25,11.32.09,22.64.13,34,0,7.2.94,8.1,8,8.17,5.23.06,7.56,3.59,5.71,8.46-.61,1.59-1.8,1.21-2.85,1.21-11.83,0-23.65-.06-35.47.08-2.85,0-3.12-1.54-2.64-3.41.55-2.15-2.11-5.61,2.28-6.32,7.68-1.23,7.68-1.21,7.69-9,0-9.82,0-19.64,0-29.46,0-8.33-5.89-12.75-13.94-10.59A17.06,17.06,0,0,0,75.93,54.64c-.37,9-.12,18-.1,27,0,4.15,2.24,6.12,6.31,5.85,5.62-.38,2.93,3.84,3.46,6.2.62,2.8-.71,3.62-3.51,3.57q-15.24-.23-30.48,0c-2.72,0-3.84-1-3.15-3.4.62-2.2-2.46-6,2.79-6.39,6.81-.52,7.28-1.16,7.3-7.82,0-10,.11-20-.07-30C58.29,39.07,50.37,34.73,41.07,40c-6.2,3.53-9,9.17-9.15,16.12-.15,8.16,0,16.32-.06,24.47,0,4.73,1.93,7.29,6.88,6.85,5.12-.46,3.16,3.34,3.54,5.73.46,2.92-.48,4.1-3.73,4-11.49-.2-23-.3-34.47,0-4.24.12-3.6-2.24-3.49-4.66s-1.23-5.81,3.48-5.16a19.89,19.89,0,0,0,3,0c6.53-.1,7.51-1,7.53-7.59q0-16.73,0-33.46c0-6.93-1.11-8-8.15-8.08-5.53-.07-7.5-2.94-5.9-8.21.53-1.73,1.7-1.31,2.73-1.31,8.66,0,17.32.05,26-.08,2.57,0,3.11,1.05,3,3.27C32.09,34.5,32.19,37,32.19,40.76Z"/><path class="cls-2" d="M475.6,62.37c8.48-6.91,15.94-13,23.37-19.08,1-.85,2-1.92,1.41-3.43-.51-1.25-1.83-1.33-3-1.46-1.32-.14-2.66-.1-4-.11-5.79,0-6-.45-5.66-6.32.15-2.37,1-3.17,3.33-3.15q18.48.09,37,0c2.22,0,3.74.61,3.25,3.06s2,6.2-2.65,6.79C517.89,40,511.8,48.79,503.61,54.23c-1.67,1.11-.69,2.28.11,3.36,6,8.17,12,16.4,18.11,24.48a13.15,13.15,0,0,0,10.95,5.09c5.22,0,3.27,3.77,3.66,6.37.51,3.42-1.52,3.68-4.19,3.66-11.66-.09-23.32-.15-35,0-3.4,0-4.36-1.23-4.14-4.37.2-2.78-.65-5.67,4-5.59,5.16.1,5.81-1.54,2.83-5.91-2.81-4.13-5.93-8-8.6-12.26-1.75-2.77-3.22-2.65-5.42-.66a43,43,0,0,1-6.71,5.19c-4.13,2.43-4.14,6-3.33,9.94s4.06,3.87,7.09,3.8c4.6-.11,3.05,3.28,3.33,5.63.33,2.77-.36,4.27-3.7,4.22-11.48-.17-23-.21-34.46,0-4.47.08-3.55-2.72-3.68-5.27-.14-2.74,0-5.12,3.8-4.61,1.14.15,2.33,0,3.49,0,4.66.26,6.66-1.95,6.62-6.57-.1-10.16,0-20.31,0-30.47q0-15.72,0-31.46c0-8.12-.73-9.1-8.77-8.82-4.28.15-5.25-1.31-5.24-5.35,0-3.85,1.25-4.8,4.89-4.67,7.32.26,14.66.26,22,0,3.59-.13,4.46,1.18,4.43,4.57-.14,17.81-.07,35.62-.07,53.43Z"/><path class="cls-1" d="M131.63,121.17c5.12,4.35,13.34,3.76,18.09-1.53,5.55-6.18,7.49-14.34,10.92-21.68.78-1.68-.66-3.18-1.33-4.63-7.19-15.51-14.57-30.93-21.59-46.51-2.22-5-5.4-8-10.82-8-5.92-.12-3.31-4.47-3.72-7.22-.57-3.81,2.43-2.71,4.31-2.72,11.49-.06,23,.18,34.47-.14,4.13-.11,3.65,2.12,3.54,4.62s1.13,5.26-3.55,5.16c-7.52-.16-8.23,1.23-5.28,8.22,4.09,9.7,8.26,19.36,12.91,30.26,4.67-11.61,9-21.93,12.93-32.42,1.56-4.17-.34-5.87-5.59-6.22-1.53-.11-3.95,1-4.43-.91a22.65,22.65,0,0,1,0-7.92c.12-1,1.7-.66,2.65-.67,9.83,0,19.65,0,29.48,0,2,0,3.44.44,2.83,2.7s2.23,6.37-2.13,6.91c-6.25.77-9,4.43-11.22,9.77-8.35,20.25-17,40.38-25.55,60.54-2.6,6.13-5.54,12.11-10.07,17.1-7,7.68-15.67,9.76-25.44,7-10.22-2.87-15.5-14.31-11.14-23.43a10.54,10.54,0,0,1,12.95-5.63c5,1.51,7.51,5.18,6.89,10.07S138.58,120.54,131.63,121.17Z"/><path class="cls-1" d="M332.14,99.38c-34.58-.58-42.1-30.2-34.23-51.77C303,33.7,317.07,25.93,334.16,26.54c34.08,1.22,40.83,30.25,34,50.64C363.29,91.52,349.73,99.67,332.14,99.38Zm18.47-36.14c.11-5.87-.41-11.63-2.79-17.09C345,39.67,340,36.33,333,36.23s-12.45,2.93-15,9.48a45.66,45.66,0,0,0,0,34.53c2.6,6.57,8.1,9.55,15.05,9.47,6.73-.08,11.72-3.19,14.6-9.44C350.1,74.84,350.7,69.1,350.61,63.24Z"/><path class="cls-2" d="M412.65,99.42c-29.54.17-46.85-27.1-34.08-53.88,6.2-13,17.57-18.24,31.16-18.9,15-.73,28.15,3.33,36,17.41,7.28,13,5.66,31.72-3.33,42.88C436,94.9,425.42,99.35,412.65,99.42Zm17.82-36.31a40,40,0,0,0-2.92-17.06c-2.84-6.45-7.91-9.77-14.88-9.82-7.19,0-12.59,3.29-15.17,10.06a46,46,0,0,0-.11,33.15c2.52,6.81,7.87,10.23,15,10.29s12.37-3.35,15.22-10A39.61,39.61,0,0,0,430.47,63.11Z"/></svg>